<?xml version="1.0" encoding="UTF-8" standalone="no"?>
<!-- Created with Inkscape (http://www.inkscape.org/) -->

<svg
   xmlns:osb="http://www.openswatchbook.org/uri/2009/osb"
   xmlns:dc="http://purl.org/dc/elements/1.1/"
   xmlns:cc="http://creativecommons.org/ns#"
   xmlns:rdf="http://www.w3.org/1999/02/22-rdf-syntax-ns#"
   xmlns:svg="http://www.w3.org/2000/svg"
   xmlns="http://www.w3.org/2000/svg"
   xmlns:xlink="http://www.w3.org/1999/xlink"
   xmlns:sodipodi="http://sodipodi.sourceforge.net/DTD/sodipodi-0.dtd"
   xmlns:inkscape="http://www.inkscape.org/namespaces/inkscape"
   sodipodi:docname="symbols.svg"
   inkscape:version="0.48.0 r9654"
   version="1.1"
   id="svg2"
   height="180"
   width="144">
  <defs
     id="defs4">
    <pattern
       inkscape:collect="always"
       xlink:href="#pattern3956"
       id="pattern4682"
       patternTransform="translate(1.5,7.4999981)" />
    <linearGradient
       id="linearGradient3880"
       osb:paint="solid">
      <stop
         style="stop-color:#c7aec7;stop-opacity:1;"
         offset="0"
         id="stop3882" />
    </linearGradient>
    <linearGradient
       id="linearGradient3757">
      <stop
         id="stop3765"
         offset="0"
         style="stop-color:#ffffff;stop-opacity:1;" />
      <stop
         style="stop-color:#ffff89;stop-opacity:1;"
         offset="1"
         id="stop3761" />
    </linearGradient>
    <radialGradient
       inkscape:collect="always"
       xlink:href="#linearGradient3757"
       id="radialGradient3801"
       gradientUnits="userSpaceOnUse"
       cx="9"
       cy="9"
       fx="9"
       fy="9"
       r="9" />
    <radialGradient
       inkscape:collect="always"
       xlink:href="#linearGradient3757"
       id="radialGradient3896"
       gradientUnits="userSpaceOnUse"
       gradientTransform="translate(-0.5,1033.8622)"
       cx="9"
       cy="9"
       fx="9"
       fy="9"
       r="9" />
    <pattern
       patternUnits="userSpaceOnUse"
       width="14"
       height="1.9999998"
       patternTransform="translate(1.5,7.4999981)"
       id="pattern3956">
      <rect
         style="fill:#000000;fill-opacity:1"
         id="rect3774"
         width="14"
         height="1.9999998"
         x="0"
         y="-2.6645353e-15" />
    </pattern>
    <radialGradient
       inkscape:collect="always"
       xlink:href="#linearGradient3757"
       id="radialGradient6101"
       gradientUnits="userSpaceOnUse"
       gradientTransform="matrix(0.30145822,0.32657885,-1.4444446,1.333337,19.286878,-5.9392255)"
       cx="9"
       cy="9"
       fx="9"
       fy="9"
       r="9" />
  </defs>
  <sodipodi:namedview
     id="base"
     pagecolor="#ffffff"
     bordercolor="#666666"
     borderopacity="1.0"
     inkscape:pageopacity="0.0"
     inkscape:pageshadow="2"
     inkscape:zoom="8"
     inkscape:cx="59.911286"
     inkscape:cy="147.28085"
     inkscape:document-units="px"
     inkscape:current-layer="layer2"
     showgrid="true"
     objecttolerance="20"
     fit-margin-top="0"
     fit-margin-left="0"
     fit-margin-right="0"
     fit-margin-bottom="0"
     inkscape:window-width="1920"
     inkscape:window-height="1031"
     inkscape:window-x="0"
     inkscape:window-y="0"
     inkscape:window-maximized="1"
     inkscape:snap-global="false">
    <inkscape:grid
       type="xygrid"
       id="grid2985"
       empspacing="5"
       visible="true"
       enabled="true"
       snapvisiblegridlinesonly="true" />
  </sodipodi:namedview>
  <metadata
     id="metadata7">
    <rdf:RDF>
      <cc:Work
         rdf:about="">
        <dc:format>image/svg+xml</dc:format>
        <dc:type
           rdf:resource="http://purl.org/dc/dcmitype/StillImage" />
        <dc:title></dc:title>
      </cc:Work>
    </rdf:RDF>
  </metadata>
  <g
     inkscape:label="bg"
     inkscape:groupmode="layer"
     id="layer1"
     transform="translate(0.5,-1033.8622)"
     style="display:inline"
     sodipodi:insensitive="true">
    <path
       style="fill:url(#radialGradient6101);fill-opacity:1;stroke:none"
       d="M 0,0 0,18 18,18 18,0 0,0 z M 1,1 17,1 17,17 1,17 1,1 z"
       transform="translate(-0.5,1033.8622)"
       id="rect2987"
       inkscape:tile-cx="9"
       inkscape:tile-cy="9.0000174"
       inkscape:tile-w="18"
       inkscape:tile-h="18"
       inkscape:tile-x0="0"
       inkscape:tile-y0="1.7382813e-05"
       inkscape:connector-curvature="0" />
    <use
       x="0"
       y="0"
       inkscape:tiled-clone-of="#rect2987"
       xlink:href="#rect2987"
       id="use6103"
       width="144"
       height="180" />
    <use
       x="0"
       y="0"
       inkscape:tiled-clone-of="#rect2987"
       xlink:href="#rect2987"
       transform="translate(0,18)"
       id="use6105"
       width="144"
       height="180" />
    <use
       x="0"
       y="0"
       inkscape:tiled-clone-of="#rect2987"
       xlink:href="#rect2987"
       transform="translate(0,36)"
       id="use6107"
       width="144"
       height="180" />
    <use
       x="0"
       y="0"
       inkscape:tiled-clone-of="#rect2987"
       xlink:href="#rect2987"
       transform="translate(0,54)"
       id="use6109"
       width="144"
       height="180" />
    <use
       x="0"
       y="0"
       inkscape:tiled-clone-of="#rect2987"
       xlink:href="#rect2987"
       transform="translate(0,72)"
       id="use6111"
       width="144"
       height="180" />
    <use
       x="0"
       y="0"
       inkscape:tiled-clone-of="#rect2987"
       xlink:href="#rect2987"
       transform="translate(0,90)"
       id="use6113"
       width="144"
       height="180" />
    <use
       x="0"
       y="0"
       inkscape:tiled-clone-of="#rect2987"
       xlink:href="#rect2987"
       transform="translate(0,108)"
       id="use6115"
       width="144"
       height="180" />
    <use
       x="0"
       y="0"
       inkscape:tiled-clone-of="#rect2987"
       xlink:href="#rect2987"
       transform="translate(0,126)"
       id="use6117"
       width="144"
       height="180" />
    <use
       x="0"
       y="0"
       inkscape:tiled-clone-of="#rect2987"
       xlink:href="#rect2987"
       transform="translate(0,144)"
       id="use6119"
       width="144"
       height="180" />
    <use
       x="0"
       y="0"
       inkscape:tiled-clone-of="#rect2987"
       xlink:href="#rect2987"
       transform="translate(0,162)"
       id="use6121"
       width="144"
       height="180" />
    <use
       x="0"
       y="0"
       inkscape:tiled-clone-of="#rect2987"
       xlink:href="#rect2987"
       transform="translate(0,180)"
       id="use6123"
       width="144"
       height="180" />
    <use
       x="0"
       y="0"
       inkscape:tiled-clone-of="#rect2987"
       xlink:href="#rect2987"
       transform="translate(0,198)"
       id="use6125"
       width="144"
       height="180" />
    <use
       x="0"
       y="0"
       inkscape:tiled-clone-of="#rect2987"
       xlink:href="#rect2987"
       transform="translate(0,216)"
       id="use6127"
       width="144"
       height="180" />
    <use
       x="0"
       y="0"
       inkscape:tiled-clone-of="#rect2987"
       xlink:href="#rect2987"
       transform="translate(0,234)"
       id="use6129"
       width="144"
       height="180" />
    <use
       x="0"
       y="0"
       inkscape:tiled-clone-of="#rect2987"
       xlink:href="#rect2987"
       transform="translate(0,252)"
       id="use6131"
       width="144"
       height="180" />
    <use
       x="0"
       y="0"
       inkscape:tiled-clone-of="#rect2987"
       xlink:href="#rect2987"
       transform="translate(0,270)"
       id="use6133"
       width="144"
       height="180" />
    <use
       x="0"
       y="0"
       inkscape:tiled-clone-of="#rect2987"
       xlink:href="#rect2987"
       transform="translate(18,0)"
       id="use6135"
       width="144"
       height="180" />
    <use
       x="0"
       y="0"
       inkscape:tiled-clone-of="#rect2987"
       xlink:href="#rect2987"
       transform="translate(18,18)"
       id="use6137"
       width="144"
       height="180" />
    <use
       x="0"
       y="0"
       inkscape:tiled-clone-of="#rect2987"
       xlink:href="#rect2987"
       transform="translate(18,36)"
       id="use6139"
       width="144"
       height="180" />
    <use
       x="0"
       y="0"
       inkscape:tiled-clone-of="#rect2987"
       xlink:href="#rect2987"
       transform="translate(18,54)"
       id="use6141"
       width="144"
       height="180" />
    <use
       x="0"
       y="0"
       inkscape:tiled-clone-of="#rect2987"
       xlink:href="#rect2987"
       transform="translate(18,72)"
       id="use6143"
       width="144"
       height="180" />
    <use
       x="0"
       y="0"
       inkscape:tiled-clone-of="#rect2987"
       xlink:href="#rect2987"
       transform="translate(18,90)"
       id="use6145"
       width="144"
       height="180" />
    <use
       x="0"
       y="0"
       inkscape:tiled-clone-of="#rect2987"
       xlink:href="#rect2987"
       transform="translate(18,108)"
       id="use6147"
       width="144"
       height="180" />
    <use
       x="0"
       y="0"
       inkscape:tiled-clone-of="#rect2987"
       xlink:href="#rect2987"
       transform="translate(18,126)"
       id="use6149"
       width="144"
       height="180" />
    <use
       x="0"
       y="0"
       inkscape:tiled-clone-of="#rect2987"
       xlink:href="#rect2987"
       transform="translate(18,144)"
       id="use6151"
       width="144"
       height="180" />
    <use
       x="0"
       y="0"
       inkscape:tiled-clone-of="#rect2987"
       xlink:href="#rect2987"
       transform="translate(18,162)"
       id="use6153"
       width="144"
       height="180" />
    <use
       x="0"
       y="0"
       inkscape:tiled-clone-of="#rect2987"
       xlink:href="#rect2987"
       transform="translate(18,180)"
       id="use6155"
       width="144"
       height="180" />
    <use
       x="0"
       y="0"
       inkscape:tiled-clone-of="#rect2987"
       xlink:href="#rect2987"
       transform="translate(18,198)"
       id="use6157"
       width="144"
       height="180" />
    <use
       x="0"
       y="0"
       inkscape:tiled-clone-of="#rect2987"
       xlink:href="#rect2987"
       transform="translate(18,216)"
       id="use6159"
       width="144"
       height="180" />
    <use
       x="0"
       y="0"
       inkscape:tiled-clone-of="#rect2987"
       xlink:href="#rect2987"
       transform="translate(18,234)"
       id="use6161"
       width="144"
       height="180" />
    <use
       x="0"
       y="0"
       inkscape:tiled-clone-of="#rect2987"
       xlink:href="#rect2987"
       transform="translate(18,252)"
       id="use6163"
       width="144"
       height="180" />
    <use
       x="0"
       y="0"
       inkscape:tiled-clone-of="#rect2987"
       xlink:href="#rect2987"
       transform="translate(18,270)"
       id="use6165"
       width="144"
       height="180" />
    <use
       x="0"
       y="0"
       inkscape:tiled-clone-of="#rect2987"
       xlink:href="#rect2987"
       transform="translate(36,0)"
       id="use6167"
       width="144"
       height="180" />
    <use
       x="0"
       y="0"
       inkscape:tiled-clone-of="#rect2987"
       xlink:href="#rect2987"
       transform="translate(36,18)"
       id="use6169"
       width="144"
       height="180" />
    <use
       x="0"
       y="0"
       inkscape:tiled-clone-of="#rect2987"
       xlink:href="#rect2987"
       transform="translate(36,36)"
       id="use6171"
       width="144"
       height="180" />
    <use
       x="0"
       y="0"
       inkscape:tiled-clone-of="#rect2987"
       xlink:href="#rect2987"
       transform="translate(36,54)"
       id="use6173"
       width="144"
       height="180" />
    <use
       x="0"
       y="0"
       inkscape:tiled-clone-of="#rect2987"
       xlink:href="#rect2987"
       transform="translate(36,72)"
       id="use6175"
       width="144"
       height="180" />
    <use
       x="0"
       y="0"
       inkscape:tiled-clone-of="#rect2987"
       xlink:href="#rect2987"
       transform="translate(36,90)"
       id="use6177"
       width="144"
       height="180" />
    <use
       x="0"
       y="0"
       inkscape:tiled-clone-of="#rect2987"
       xlink:href="#rect2987"
       transform="translate(36,108)"
       id="use6179"
       width="144"
       height="180" />
    <use
       x="0"
       y="0"
       inkscape:tiled-clone-of="#rect2987"
       xlink:href="#rect2987"
       transform="translate(36,126)"
       id="use6181"
       width="144"
       height="180" />
    <use
       x="0"
       y="0"
       inkscape:tiled-clone-of="#rect2987"
       xlink:href="#rect2987"
       transform="translate(36,144)"
       id="use6183"
       width="144"
       height="180" />
    <use
       x="0"
       y="0"
       inkscape:tiled-clone-of="#rect2987"
       xlink:href="#rect2987"
       transform="translate(36,162)"
       id="use6185"
       width="144"
       height="180" />
    <use
       x="0"
       y="0"
       inkscape:tiled-clone-of="#rect2987"
       xlink:href="#rect2987"
       transform="translate(36,180)"
       id="use6187"
       width="144"
       height="180" />
    <use
       x="0"
       y="0"
       inkscape:tiled-clone-of="#rect2987"
       xlink:href="#rect2987"
       transform="translate(36,198)"
       id="use6189"
       width="144"
       height="180" />
    <use
       x="0"
       y="0"
       inkscape:tiled-clone-of="#rect2987"
       xlink:href="#rect2987"
       transform="translate(36,216)"
       id="use6191"
       width="144"
       height="180" />
    <use
       x="0"
       y="0"
       inkscape:tiled-clone-of="#rect2987"
       xlink:href="#rect2987"
       transform="translate(36,234)"
       id="use6193"
       width="144"
       height="180" />
    <use
       x="0"
       y="0"
       inkscape:tiled-clone-of="#rect2987"
       xlink:href="#rect2987"
       transform="translate(36,252)"
       id="use6195"
       width="144"
       height="180" />
    <use
       x="0"
       y="0"
       inkscape:tiled-clone-of="#rect2987"
       xlink:href="#rect2987"
       transform="translate(36,270)"
       id="use6197"
       width="144"
       height="180" />
    <use
       x="0"
       y="0"
       inkscape:tiled-clone-of="#rect2987"
       xlink:href="#rect2987"
       transform="translate(54,0)"
       id="use6199"
       width="144"
       height="180" />
    <use
       x="0"
       y="0"
       inkscape:tiled-clone-of="#rect2987"
       xlink:href="#rect2987"
       transform="translate(54,18)"
       id="use6201"
       width="144"
       height="180" />
    <use
       x="0"
       y="0"
       inkscape:tiled-clone-of="#rect2987"
       xlink:href="#rect2987"
       transform="translate(54,36)"
       id="use6203"
       width="144"
       height="180" />
    <use
       x="0"
       y="0"
       inkscape:tiled-clone-of="#rect2987"
       xlink:href="#rect2987"
       transform="translate(54,54)"
       id="use6205"
       width="144"
       height="180" />
    <use
       x="0"
       y="0"
       inkscape:tiled-clone-of="#rect2987"
       xlink:href="#rect2987"
       transform="translate(54,72)"
       id="use6207"
       width="144"
       height="180" />
    <use
       x="0"
       y="0"
       inkscape:tiled-clone-of="#rect2987"
       xlink:href="#rect2987"
       transform="translate(54,90)"
       id="use6209"
       width="144"
       height="180" />
    <use
       x="0"
       y="0"
       inkscape:tiled-clone-of="#rect2987"
       xlink:href="#rect2987"
       transform="translate(54,108)"
       id="use6211"
       width="144"
       height="180" />
    <use
       x="0"
       y="0"
       inkscape:tiled-clone-of="#rect2987"
       xlink:href="#rect2987"
       transform="translate(54,126)"
       id="use6213"
       width="144"
       height="180" />
    <use
       x="0"
       y="0"
       inkscape:tiled-clone-of="#rect2987"
       xlink:href="#rect2987"
       transform="translate(54,144)"
       id="use6215"
       width="144"
       height="180" />
    <use
       x="0"
       y="0"
       inkscape:tiled-clone-of="#rect2987"
       xlink:href="#rect2987"
       transform="translate(54,162)"
       id="use6217"
       width="144"
       height="180" />
    <use
       x="0"
       y="0"
       inkscape:tiled-clone-of="#rect2987"
       xlink:href="#rect2987"
       transform="translate(54,180)"
       id="use6219"
       width="144"
       height="180" />
    <use
       x="0"
       y="0"
       inkscape:tiled-clone-of="#rect2987"
       xlink:href="#rect2987"
       transform="translate(54,198)"
       id="use6221"
       width="144"
       height="180" />
    <use
       x="0"
       y="0"
       inkscape:tiled-clone-of="#rect2987"
       xlink:href="#rect2987"
       transform="translate(54,216)"
       id="use6223"
       width="144"
       height="180" />
    <use
       x="0"
       y="0"
       inkscape:tiled-clone-of="#rect2987"
       xlink:href="#rect2987"
       transform="translate(54,234)"
       id="use6225"
       width="144"
       height="180" />
    <use
       x="0"
       y="0"
       inkscape:tiled-clone-of="#rect2987"
       xlink:href="#rect2987"
       transform="translate(54,252)"
       id="use6227"
       width="144"
       height="180" />
    <use
       x="0"
       y="0"
       inkscape:tiled-clone-of="#rect2987"
       xlink:href="#rect2987"
       transform="translate(54,270)"
       id="use6229"
       width="144"
       height="180" />
    <use
       x="0"
       y="0"
       inkscape:tiled-clone-of="#rect2987"
       xlink:href="#rect2987"
       transform="translate(72,0)"
       id="use6231"
       width="144"
       height="180" />
    <use
       x="0"
       y="0"
       inkscape:tiled-clone-of="#rect2987"
       xlink:href="#rect2987"
       transform="translate(72,18)"
       id="use6233"
       width="144"
       height="180" />
    <use
       x="0"
       y="0"
       inkscape:tiled-clone-of="#rect2987"
       xlink:href="#rect2987"
       transform="translate(72,36)"
       id="use6235"
       width="144"
       height="180" />
    <use
       x="0"
       y="0"
       inkscape:tiled-clone-of="#rect2987"
       xlink:href="#rect2987"
       transform="translate(72,54)"
       id="use6237"
       width="144"
       height="180" />
    <use
       x="0"
       y="0"
       inkscape:tiled-clone-of="#rect2987"
       xlink:href="#rect2987"
       transform="translate(72,72)"
       id="use6239"
       width="144"
       height="180" />
    <use
       x="0"
       y="0"
       inkscape:tiled-clone-of="#rect2987"
       xlink:href="#rect2987"
       transform="translate(72,90)"
       id="use6241"
       width="144"
       height="180" />
    <use
       x="0"
       y="0"
       inkscape:tiled-clone-of="#rect2987"
       xlink:href="#rect2987"
       transform="translate(72,108)"
       id="use6243"
       width="144"
       height="180" />
    <use
       x="0"
       y="0"
       inkscape:tiled-clone-of="#rect2987"
       xlink:href="#rect2987"
       transform="translate(72,126)"
       id="use6245"
       width="144"
       height="180" />
    <use
       x="0"
       y="0"
       inkscape:tiled-clone-of="#rect2987"
       xlink:href="#rect2987"
       transform="translate(72,144)"
       id="use6247"
       width="144"
       height="180" />
    <use
       x="0"
       y="0"
       inkscape:tiled-clone-of="#rect2987"
       xlink:href="#rect2987"
       transform="translate(72,162)"
       id="use6249"
       width="144"
       height="180" />
    <use
       x="0"
       y="0"
       inkscape:tiled-clone-of="#rect2987"
       xlink:href="#rect2987"
       transform="translate(72,180)"
       id="use6251"
       width="144"
       height="180" />
    <use
       x="0"
       y="0"
       inkscape:tiled-clone-of="#rect2987"
       xlink:href="#rect2987"
       transform="translate(72,198)"
       id="use6253"
       width="144"
       height="180" />
    <use
       x="0"
       y="0"
       inkscape:tiled-clone-of="#rect2987"
       xlink:href="#rect2987"
       transform="translate(72,216)"
       id="use6255"
       width="144"
       height="180" />
    <use
       x="0"
       y="0"
       inkscape:tiled-clone-of="#rect2987"
       xlink:href="#rect2987"
       transform="translate(72,234)"
       id="use6257"
       width="144"
       height="180" />
    <use
       x="0"
       y="0"
       inkscape:tiled-clone-of="#rect2987"
       xlink:href="#rect2987"
       transform="translate(72,252)"
       id="use6259"
       width="144"
       height="180" />
    <use
       x="0"
       y="0"
       inkscape:tiled-clone-of="#rect2987"
       xlink:href="#rect2987"
       transform="translate(72,270)"
       id="use6261"
       width="144"
       height="180" />
    <use
       x="0"
       y="0"
       inkscape:tiled-clone-of="#rect2987"
       xlink:href="#rect2987"
       transform="translate(90,0)"
       id="use6263"
       width="144"
       height="180" />
    <use
       x="0"
       y="0"
       inkscape:tiled-clone-of="#rect2987"
       xlink:href="#rect2987"
       transform="translate(90,18)"
       id="use6265"
       width="144"
       height="180" />
    <use
       x="0"
       y="0"
       inkscape:tiled-clone-of="#rect2987"
       xlink:href="#rect2987"
       transform="translate(90,36)"
       id="use6267"
       width="144"
       height="180" />
    <use
       x="0"
       y="0"
       inkscape:tiled-clone-of="#rect2987"
       xlink:href="#rect2987"
       transform="translate(90,54)"
       id="use6269"
       width="144"
       height="180" />
    <use
       x="0"
       y="0"
       inkscape:tiled-clone-of="#rect2987"
       xlink:href="#rect2987"
       transform="translate(90,72)"
       id="use6271"
       width="144"
       height="180" />
    <use
       x="0"
       y="0"
       inkscape:tiled-clone-of="#rect2987"
       xlink:href="#rect2987"
       transform="translate(90,90)"
       id="use6273"
       width="144"
       height="180" />
    <use
       x="0"
       y="0"
       inkscape:tiled-clone-of="#rect2987"
       xlink:href="#rect2987"
       transform="translate(90,108)"
       id="use6275"
       width="144"
       height="180" />
    <use
       x="0"
       y="0"
       inkscape:tiled-clone-of="#rect2987"
       xlink:href="#rect2987"
       transform="translate(90,126)"
       id="use6277"
       width="144"
       height="180" />
    <use
       x="0"
       y="0"
       inkscape:tiled-clone-of="#rect2987"
       xlink:href="#rect2987"
       transform="translate(90,144)"
       id="use6279"
       width="144"
       height="180" />
    <use
       x="0"
       y="0"
       inkscape:tiled-clone-of="#rect2987"
       xlink:href="#rect2987"
       transform="translate(90,162)"
       id="use6281"
       width="144"
       height="180" />
    <use
       x="0"
       y="0"
       inkscape:tiled-clone-of="#rect2987"
       xlink:href="#rect2987"
       transform="translate(90,180)"
       id="use6283"
       width="144"
       height="180" />
    <use
       x="0"
       y="0"
       inkscape:tiled-clone-of="#rect2987"
       xlink:href="#rect2987"
       transform="translate(90,198)"
       id="use6285"
       width="144"
       height="180" />
    <use
       x="0"
       y="0"
       inkscape:tiled-clone-of="#rect2987"
       xlink:href="#rect2987"
       transform="translate(90,216)"
       id="use6287"
       width="144"
       height="180" />
    <use
       x="0"
       y="0"
       inkscape:tiled-clone-of="#rect2987"
       xlink:href="#rect2987"
       transform="translate(90,234)"
       id="use6289"
       width="144"
       height="180" />
    <use
       x="0"
       y="0"
       inkscape:tiled-clone-of="#rect2987"
       xlink:href="#rect2987"
       transform="translate(90,252)"
       id="use6291"
       width="144"
       height="180" />
    <use
       x="0"
       y="0"
       inkscape:tiled-clone-of="#rect2987"
       xlink:href="#rect2987"
       transform="translate(90,270)"
       id="use6293"
       width="144"
       height="180" />
    <use
       x="0"
       y="0"
       inkscape:tiled-clone-of="#rect2987"
       xlink:href="#rect2987"
       transform="translate(108,0)"
       id="use6295"
       width="144"
       height="180" />
    <use
       x="0"
       y="0"
       inkscape:tiled-clone-of="#rect2987"
       xlink:href="#rect2987"
       transform="translate(108,18)"
       id="use6297"
       width="144"
       height="180" />
    <use
       x="0"
       y="0"
       inkscape:tiled-clone-of="#rect2987"
       xlink:href="#rect2987"
       transform="translate(108,36)"
       id="use6299"
       width="144"
       height="180" />
    <use
       x="0"
       y="0"
       inkscape:tiled-clone-of="#rect2987"
       xlink:href="#rect2987"
       transform="translate(108,54)"
       id="use6301"
       width="144"
       height="180" />
    <use
       x="0"
       y="0"
       inkscape:tiled-clone-of="#rect2987"
       xlink:href="#rect2987"
       transform="translate(108,72)"
       id="use6303"
       width="144"
       height="180" />
    <use
       x="0"
       y="0"
       inkscape:tiled-clone-of="#rect2987"
       xlink:href="#rect2987"
       transform="translate(108,90)"
       id="use6305"
       width="144"
       height="180" />
    <use
       x="0"
       y="0"
       inkscape:tiled-clone-of="#rect2987"
       xlink:href="#rect2987"
       transform="translate(108,108)"
       id="use6307"
       width="144"
       height="180" />
    <use
       x="0"
       y="0"
       inkscape:tiled-clone-of="#rect2987"
       xlink:href="#rect2987"
       transform="translate(108,126)"
       id="use6309"
       width="144"
       height="180" />
    <use
       x="0"
       y="0"
       inkscape:tiled-clone-of="#rect2987"
       xlink:href="#rect2987"
       transform="translate(108,144)"
       id="use6311"
       width="144"
       height="180" />
    <use
       x="0"
       y="0"
       inkscape:tiled-clone-of="#rect2987"
       xlink:href="#rect2987"
       transform="translate(108,162)"
       id="use6313"
       width="144"
       height="180" />
    <use
       x="0"
       y="0"
       inkscape:tiled-clone-of="#rect2987"
       xlink:href="#rect2987"
       transform="translate(108,180)"
       id="use6315"
       width="144"
       height="180" />
    <use
       x="0"
       y="0"
       inkscape:tiled-clone-of="#rect2987"
       xlink:href="#rect2987"
       transform="translate(108,198)"
       id="use6317"
       width="144"
       height="180" />
    <use
       x="0"
       y="0"
       inkscape:tiled-clone-of="#rect2987"
       xlink:href="#rect2987"
       transform="translate(108,216)"
       id="use6319"
       width="144"
       height="180" />
    <use
       x="0"
       y="0"
       inkscape:tiled-clone-of="#rect2987"
       xlink:href="#rect2987"
       transform="translate(108,234)"
       id="use6321"
       width="144"
       height="180" />
    <use
       x="0"
       y="0"
       inkscape:tiled-clone-of="#rect2987"
       xlink:href="#rect2987"
       transform="translate(108,252)"
       id="use6323"
       width="144"
       height="180" />
    <use
       x="0"
       y="0"
       inkscape:tiled-clone-of="#rect2987"
       xlink:href="#rect2987"
       transform="translate(108,270)"
       id="use6325"
       width="144"
       height="180" />
    <use
       x="0"
       y="0"
       inkscape:tiled-clone-of="#rect2987"
       xlink:href="#rect2987"
       transform="translate(126,0)"
       id="use6327"
       width="144"
       height="180" />
    <use
       x="0"
       y="0"
       inkscape:tiled-clone-of="#rect2987"
       xlink:href="#rect2987"
       transform="translate(126,18)"
       id="use6329"
       width="144"
       height="180" />
    <use
       x="0"
       y="0"
       inkscape:tiled-clone-of="#rect2987"
       xlink:href="#rect2987"
       transform="translate(126,36)"
       id="use6331"
       width="144"
       height="180" />
    <use
       x="0"
       y="0"
       inkscape:tiled-clone-of="#rect2987"
       xlink:href="#rect2987"
       transform="translate(126,54)"
       id="use6333"
       width="144"
       height="180" />
    <use
       x="0"
       y="0"
       inkscape:tiled-clone-of="#rect2987"
       xlink:href="#rect2987"
       transform="translate(126,72)"
       id="use6335"
       width="144"
       height="180" />
    <use
       x="0"
       y="0"
       inkscape:tiled-clone-of="#rect2987"
       xlink:href="#rect2987"
       transform="translate(126,90)"
       id="use6337"
       width="144"
       height="180" />
    <use
       x="0"
       y="0"
       inkscape:tiled-clone-of="#rect2987"
       xlink:href="#rect2987"
       transform="translate(126,108)"
       id="use6339"
       width="144"
       height="180" />
    <use
       x="0"
       y="0"
       inkscape:tiled-clone-of="#rect2987"
       xlink:href="#rect2987"
       transform="translate(126,126)"
       id="use6341"
       width="144"
       height="180" />
    <use
       x="0"
       y="0"
       inkscape:tiled-clone-of="#rect2987"
       xlink:href="#rect2987"
       transform="translate(126,144)"
       id="use6343"
       width="144"
       height="180" />
    <use
       x="0"
       y="0"
       inkscape:tiled-clone-of="#rect2987"
       xlink:href="#rect2987"
       transform="translate(126,162)"
       id="use6345"
       width="144"
       height="180" />
    <use
       x="0"
       y="0"
       inkscape:tiled-clone-of="#rect2987"
       xlink:href="#rect2987"
       transform="translate(126,180)"
       id="use6347"
       width="144"
       height="180" />
    <use
       x="0"
       y="0"
       inkscape:tiled-clone-of="#rect2987"
       xlink:href="#rect2987"
       transform="translate(126,198)"
       id="use6349"
       width="144"
       height="180" />
    <use
       x="0"
       y="0"
       inkscape:tiled-clone-of="#rect2987"
       xlink:href="#rect2987"
       transform="translate(126,216)"
       id="use6351"
       width="144"
       height="180" />
    <use
       x="0"
       y="0"
       inkscape:tiled-clone-of="#rect2987"
       xlink:href="#rect2987"
       transform="translate(126,234)"
       id="use6353"
       width="144"
       height="180" />
    <use
       x="0"
       y="0"
       inkscape:tiled-clone-of="#rect2987"
       xlink:href="#rect2987"
       transform="translate(126,252)"
       id="use6355"
       width="144"
       height="180" />
    <use
       x="0"
       y="0"
       inkscape:tiled-clone-of="#rect2987"
       xlink:href="#rect2987"
       transform="translate(126,270)"
       id="use6357"
       width="144"
       height="180" />
  </g>
  <g
     inkscape:groupmode="layer"
     id="layer2"
     inkscape:label="content"
     transform="translate(0.5,0.50003476)"
     style="display:inline">
    <rect
       style="fill:#000000;fill-opacity:1"
       id="rect3772"
       width="2"
       height="14"
       x="7.5"
       y="1.4999979" />
    <rect
       style="fill:url(#pattern4682);stroke:none"
       width="14"
       height="1.9999998"
       x="1.5"
       y="7.4999981"
       id="rect3959" />
    <rect
       style="fill:#000000;fill-opacity:1"
       id="rect3776"
       width="14"
       height="1.9999998"
       x="19.5"
       y="7.4999981" />
    <rect
       y="7.4999652"
       x="55.5"
       height="2"
       width="14"
       id="rect3803"
       style="fill:#000000;fill-opacity:1" />
    <path
       style="fill:#000000;fill-opacity:1"
       d="m 80,4 -6,5 6,5 -1,-4 9,0 0,-2 -9,0 z"
       transform="translate(-0.5,-0.50003476)"
       id="rect3825"
       inkscape:connector-curvature="0"
       sodipodi:nodetypes="cccccccc" />
    <rect
       y="5.4999652"
       x="91.5"
       height="2"
       width="14"
       id="rect3831"
       style="fill:#000000;fill-opacity:1" />
    <rect
       style="fill:#000000;fill-opacity:1"
       id="rect3833"
       width="14"
       height="2"
       x="91.5"
       y="9.4999657" />
    <path
       style="fill:#000000;fill-opacity:1"
       d="m 112.5,4.5234027 0,1.9629284 1.9375,0.1042433 0.0625,5.9093906 c 0,1 1,2 2.5,2 0.5,0 2.5,0 2.5,-1 l 0,-1 c -3,1 -3,0 -3,-1 l 0,-4.9999998 0,-2 z"
       id="rect3835"
       inkscape:connector-curvature="0"
       sodipodi:nodetypes="ccccccccccc" />
    <rect
       y="-26.455845"
       x="30.476658"
       height="1.9999998"
       width="14"
       id="rect6359"
       style="fill:#000000;fill-opacity:1"
       transform="matrix(0.70710678,0.70710678,-0.70710678,0.70710678,0,0)" />
    <rect
       transform="matrix(0.70710678,-0.70710678,0.70710678,0.70710678,0,0)"
       style="fill:#000000;fill-opacity:1"
       id="rect6361"
       width="14"
       height="1.9999998"
       x="18.455845"
       y="36.476658" />
    <path
       sodipodi:type="arc"
       style="fill:#000000;fill-opacity:1;stroke:none"
       id="path6365"
       sodipodi:cx="61.5"
       sodipodi:cy="3.5"
       sodipodi:rx="1.5"
       sodipodi:ry="1.5"
       d="m 63,3.5 a 1.5,1.5 0 1 1 -3,0 1.5,1.5 0 1 1 3,0 z"
       transform="translate(1,0.49996524)" />
    <path
       transform="translate(1,9.4999652)"
       d="m 63,3.5 a 1.5,1.5 0 1 1 -3,0 1.5,1.5 0 1 1 3,0 z"
       sodipodi:ry="1.5"
       sodipodi:rx="1.5"
       sodipodi:cy="3.5"
       sodipodi:cx="61.5"
       id="path6367"
       style="fill:#000000;fill-opacity:1;stroke:none"
       sodipodi:type="arc" />
  </g>
</svg>
